<mxfile host="65bd71144e">
    <diagram id="2KVgt9bD3C4sWrx5mjUh" name="Page-1">
        <mxGraphModel dx="758" dy="617" grid="1" gridSize="10" guides="1" tooltips="1" connect="1" arrows="1" fold="1" page="1" pageScale="1" pageWidth="850" pageHeight="1100" math="0" shadow="0">
            <root>
                <mxCell id="0"/>
                <mxCell id="1" parent="0"/>
                <mxCell id="2" value="G" style="ellipse;whiteSpace=wrap;html=1;aspect=fixed;fillColor=#990000;" vertex="1" parent="1">
                    <mxGeometry x="640" y="200" width="80" height="80" as="geometry"/>
                </mxCell>
                <mxCell id="3" value="F" style="ellipse;whiteSpace=wrap;html=1;aspect=fixed;fillColor=#990000;" vertex="1" parent="1">
                    <mxGeometry x="540" y="200" width="80" height="80" as="geometry"/>
                </mxCell>
                <mxCell id="4" value="E" style="ellipse;whiteSpace=wrap;html=1;aspect=fixed;fillColor=#990000;" vertex="1" parent="1">
                    <mxGeometry x="440" y="200" width="80" height="80" as="geometry"/>
                </mxCell>
                <mxCell id="5" value="D" style="ellipse;whiteSpace=wrap;html=1;aspect=fixed;fillColor=#990000;" vertex="1" parent="1">
                    <mxGeometry x="330" y="200" width="80" height="80" as="geometry"/>
                </mxCell>
                <mxCell id="6" value="C" style="ellipse;whiteSpace=wrap;html=1;aspect=fixed;fillColor=#990000;" vertex="1" parent="1">
                    <mxGeometry x="220" y="200" width="80" height="80" as="geometry"/>
                </mxCell>
                <mxCell id="7" value="B" style="ellipse;whiteSpace=wrap;html=1;aspect=fixed;fillColor=#990000;" vertex="1" parent="1">
                    <mxGeometry x="120" y="200" width="80" height="80" as="geometry"/>
                </mxCell>
                <mxCell id="8" value="A" style="ellipse;whiteSpace=wrap;html=1;aspect=fixed;fillColor=#990000;" vertex="1" parent="1">
                    <mxGeometry x="20" y="200" width="80" height="80" as="geometry"/>
                </mxCell>
                <mxCell id="9" value="" style="endArrow=classic;html=1;entryX=0;entryY=0.5;entryDx=0;entryDy=0;" edge="1" parent="1" source="8" target="7">
                    <mxGeometry width="50" height="50" relative="1" as="geometry">
                        <mxPoint x="360" y="340" as="sourcePoint"/>
                        <mxPoint x="410" y="290" as="targetPoint"/>
                    </mxGeometry>
                </mxCell>
                <mxCell id="10" value="" style="curved=1;endArrow=classic;html=1;exitX=0.75;exitY=0;exitDx=0;exitDy=0;exitPerimeter=0;" edge="1" parent="1" source="7">
                    <mxGeometry width="50" height="50" relative="1" as="geometry">
                        <mxPoint x="360" y="340" as="sourcePoint"/>
                        <mxPoint x="250" y="190" as="targetPoint"/>
                        <Array as="points">
                            <mxPoint x="220" y="150"/>
                        </Array>
                    </mxGeometry>
                </mxCell>
                <mxCell id="11" value="" style="curved=1;endArrow=classic;html=1;exitX=0.5;exitY=1;exitDx=0;exitDy=0;entryX=0.308;entryY=1.004;entryDx=0;entryDy=0;entryPerimeter=0;" edge="1" parent="1" source="7" target="5">
                    <mxGeometry width="50" height="50" relative="1" as="geometry">
                        <mxPoint x="360" y="340" as="sourcePoint"/>
                        <mxPoint x="410" y="290" as="targetPoint"/>
                        <Array as="points">
                            <mxPoint x="260" y="330"/>
                            <mxPoint x="340" y="300"/>
                        </Array>
                    </mxGeometry>
                </mxCell>
                <mxCell id="12" value="" style="curved=1;endArrow=classic;html=1;exitX=1;exitY=0;exitDx=0;exitDy=0;entryX=0.246;entryY=0.015;entryDx=0;entryDy=0;entryPerimeter=0;" edge="1" parent="1" source="6" target="4">
                    <mxGeometry width="50" height="50" relative="1" as="geometry">
                        <mxPoint x="360" y="340" as="sourcePoint"/>
                        <mxPoint x="410" y="290" as="targetPoint"/>
                        <Array as="points">
                            <mxPoint x="320" y="160"/>
                            <mxPoint x="430" y="160"/>
                        </Array>
                    </mxGeometry>
                </mxCell>
                <mxCell id="14" value="" style="curved=1;endArrow=classic;html=1;exitX=0.704;exitY=0.983;exitDx=0;exitDy=0;exitPerimeter=0;entryX=0.329;entryY=1.004;entryDx=0;entryDy=0;entryPerimeter=0;" edge="1" parent="1" source="5" target="3">
                    <mxGeometry width="50" height="50" relative="1" as="geometry">
                        <mxPoint x="460" y="300" as="sourcePoint"/>
                        <mxPoint x="490" y="279" as="targetPoint"/>
                        <Array as="points">
                            <mxPoint x="410" y="310"/>
                            <mxPoint x="490" y="330"/>
                        </Array>
                    </mxGeometry>
                </mxCell>
                <mxCell id="15" value="" style="curved=1;endArrow=classic;html=1;entryX=0.5;entryY=0;entryDx=0;entryDy=0;" edge="1" parent="1" target="3">
                    <mxGeometry width="50" height="50" relative="1" as="geometry">
                        <mxPoint x="500" y="200" as="sourcePoint"/>
                        <mxPoint x="630" y="140" as="targetPoint"/>
                        <Array as="points">
                            <mxPoint x="560" y="140"/>
                        </Array>
                    </mxGeometry>
                </mxCell>
                <mxCell id="16" value="" style="endArrow=classic;html=1;entryX=0;entryY=0.5;entryDx=0;entryDy=0;exitX=1;exitY=0.5;exitDx=0;exitDy=0;" edge="1" parent="1" source="3" target="2">
                    <mxGeometry width="50" height="50" relative="1" as="geometry">
                        <mxPoint x="360" y="340" as="sourcePoint"/>
                        <mxPoint x="410" y="290" as="targetPoint"/>
                    </mxGeometry>
                </mxCell>
                <mxCell id="17" value="&lt;div style=&quot;color: rgb(212 , 212 , 212) ; background-color: rgb(30 , 30 , 30) ; font-family: &amp;#34;consolas&amp;#34; , &amp;#34;courier new&amp;#34; , monospace ; font-size: 14px ; line-height: 19px&quot;&gt;DAG of 7 verts.&lt;/div&gt;" style="text;html=1;align=center;verticalAlign=middle;resizable=0;points=[];autosize=1;strokeColor=none;" vertex="1" parent="1">
                    <mxGeometry x="280" y="110" width="130" height="20" as="geometry"/>
                </mxCell>
                <mxCell id="18" value="&lt;h4 id=&quot;directed-acyclic-graphs-dags&quot; style=&quot;margin: 1.25rem 0px 0.625rem ; font-family: &amp;#34;arial&amp;#34; , &amp;#34;helvetica neue&amp;#34; , &amp;#34;helvetica&amp;#34; , sans-serif ; line-height: 2.375rem ; font-size: 1.25rem ; color: rgb(27 , 33 , 44) ; background-color: rgb(255 , 255 , 255)&quot;&gt;Directed Acyclic Graphs (DAGs)&lt;/h4&gt;" style="text;html=1;align=center;verticalAlign=middle;resizable=0;points=[];autosize=1;strokeColor=none;" vertex="1" parent="1">
                    <mxGeometry x="90" y="385" width="320" height="70" as="geometry"/>
                </mxCell>
            </root>
        </mxGraphModel>
    </diagram>
</mxfile>